<svg width="25" height="25" viewBox="0 0 25 25" fill="none" xmlns="http://www.w3.org/2000/svg">
<path fill-rule="evenodd" clip-rule="evenodd" d="M5.1605 23.006C4.322 23.006 3.5255 22.673 2.9255 22.0805C2.3255 21.488 2 20.684 2 19.8455V5.1605C2 4.322 2.333 3.5255 2.9255 2.9255C3.518 2.3255 4.322 2 5.1605 2H19.8455C20.684 2 21.4805 2.333 22.0805 2.9255C22.6805 3.518 23.006 4.322 23.006 5.1605V19.8455C23.006 20.684 22.673 21.4805 22.0805 22.0805C21.488 22.6805 20.684 23.006 19.8455 23.006H5.1605ZM17.9855 14.141H15.7655V21.476H19.8455C20.0598 21.4766 20.2721 21.4348 20.4702 21.3531C20.6683 21.2714 20.8482 21.1513 20.9998 20.9998C21.1513 20.8482 21.2714 20.6683 21.3531 20.4702C21.4348 20.2721 21.4766 20.0598 21.476 19.8455V5.1605C21.4762 4.94632 21.4342 4.73421 21.3523 4.5363C21.2704 4.33839 21.1503 4.15857 20.9989 4.00712C20.8474 3.85568 20.6676 3.73558 20.4697 3.65371C20.2718 3.57184 20.0597 3.5298 19.8455 3.53H5.1605C4.72843 3.53119 4.31439 3.70335 4.00887 4.00887C3.70335 4.31439 3.53119 4.72843 3.53 5.1605V19.8455C3.53119 20.2776 3.70335 20.6916 4.00887 20.9971C4.31439 21.3026 4.72843 21.4748 5.1605 21.476H13.3205V14.141H10.8755V11.696H13.3205V10.382C13.3205 7.892 14.5325 6.797 16.6055 6.797C17.576 6.797 18.098 6.8675 18.3455 6.902L18.3605 6.9035V9.2435H16.9505C16.2395 9.2435 15.9035 9.548 15.8015 10.1615C15.777 10.3213 15.7655 10.4828 15.767 10.6445V11.69H18.332L17.9825 14.135L17.9855 14.141Z" fill="black"/>
</svg>
