<svg width="24" height="24" viewBox="0 0 24 24" fill="none" xmlns="http://www.w3.org/2000/svg">
<path d="M14.7128 6.61841C13.353 6.61841 12.2497 7.76788 12.2497 9.1842C12.2497 9.40178 12.2747 9.61149 12.3246 9.81333C12.1972 9.8214 12.0695 9.82551 11.9418 9.82565C9.86864 9.82565 8.0459 8.38059 7.00727 6.68512C6.80761 7.39416 6.70676 8.12737 6.70759 8.86399C6.70759 10.9854 7.53069 13.2258 8.86285 14.6185C8.86285 15.3729 7.01548 15.7557 6.0918 15.8532C7.2064 16.5269 8.48417 16.8825 9.78653 16.8816C13.7779 16.8816 17.0292 13.5871 17.1709 9.46541L18.4076 6.93965L16.3426 7.25986C15.8995 6.8485 15.3175 6.61944 14.7128 6.61841Z" stroke="black" stroke-width="1.5" stroke-linecap="round" stroke-linejoin="round"/>
<path d="M2.5 11.75C2.5 7.15416 2.5 4.85521 3.92761 3.42761C5.35521 2 7.65313 2 12.25 2C16.8458 2 19.1448 2 20.5724 3.42761C22 4.85521 22 7.15313 22 11.75C22 16.3458 22 18.6448 20.5724 20.0724C19.1448 21.5 16.8469 21.5 12.25 21.5C7.65416 21.5 5.35521 21.5 3.92761 20.0724C2.5 18.6448 2.5 16.3469 2.5 11.75Z" stroke="black" stroke-width="1.5" stroke-linecap="round" stroke-linejoin="round"/>
</svg>
