<svg width="23" height="23" viewBox="0 0 23 23" fill="none" xmlns="http://www.w3.org/2000/svg">
<path d="M16.6818 2H6.31818C3.93332 2 2 3.93332 2 6.31818V16.6818C2 19.0667 3.93332 21 6.31818 21H16.6818C19.0667 21 21 19.0667 21 16.6818V6.31818C21 3.93332 19.0667 2 16.6818 2Z" stroke="black" stroke-width="2" stroke-linecap="round" stroke-linejoin="round"/>
<path d="M7.18262 8.47754C7.28543 9.86519 7.75276 11.185 8.52334 12.2638C9.29392 13.3426 10.3318 14.1301 11.5008 14.523V8.47754M15.819 8.47754C15.2432 9.91693 14.0917 10.9245 12.3644 11.5003M12.3644 11.5003C14.0917 12.076 15.2432 13.0836 15.819 14.523M12.3644 11.5003H11.5008" stroke="black" stroke-width="2" stroke-linecap="round" stroke-linejoin="round"/>
</svg>
