<svg width="272" height="56" viewBox="0 0 272 56" fill="none" xmlns="http://www.w3.org/2000/svg">
<path d="M40.5 45.5L28 36.5L15 45.5L20 30.5L8 21.5H23L28 7.5L33 21.5H49L36 31L40.5 45.5L55 55V1H1V55H55L40.5 45.5Z" fill="white"/>
<path d="M40.5 45.5L28 36.5L15 45.5L20 30.5L8 21.5H23L28 7.5L33 21.5H49L36 31L40.5 45.5ZM40.5 45.5L55 55M55 55V1H1V55H55Z" stroke="white" stroke-width="0.1"/>
<path d="M28 6.23607L32.6618 20.5836L32.8863 21.2746H33.6129H48.6987L36.494 30.1418L35.9062 30.5689L36.1307 31.2599L40.7925 45.6074L28.5878 36.7401L28 36.3131L27.4122 36.7401L15.2075 45.6074L19.8693 31.2599L20.0938 30.5689L19.506 30.1418L7.30127 21.2746H22.3871H23.1137L23.3382 20.5836L28 6.23607Z" stroke="#FFEC68" stroke-width="2"/>
<path d="M94.5 45.5L82 36.5L69 45.5L74 30.5L62 21.5H77L82 7.5L87 21.5H103L90 31L94.5 45.5L109 55V1H55V55H109L94.5 45.5Z" fill="white"/>
<path d="M94.5 45.5L82 36.5L69 45.5L74 30.5L62 21.5H77L82 7.5L87 21.5H103L90 31L94.5 45.5ZM94.5 45.5L109 55M109 55V1H55V55H109Z" stroke="white" stroke-width="0.1"/>
<path d="M82 6.23607L86.6618 20.5836L86.8863 21.2746H87.6129H102.699L90.494 30.1418L89.9062 30.5689L90.1307 31.2599L94.7925 45.6074L82.5878 36.7401L82 36.3131L81.4122 36.7401L69.2075 45.6074L73.8693 31.2599L74.0938 30.5689L73.506 30.1418L61.3013 21.2746H76.3871H77.1137L77.3382 20.5836L82 6.23607Z" stroke="#FFEC68" stroke-width="2"/>
<path d="M148.5 45.5L136 36.5L123 45.5L128 30.5L116 21.5H131L136 7.5L141 21.5H157L144 31L148.5 45.5L163 55V1H109V55H163L148.5 45.5Z" fill="white"/>
<path d="M148.5 45.5L136 36.5L123 45.5L128 30.5L116 21.5H131L136 7.5L141 21.5H157L144 31L148.5 45.5ZM148.5 45.5L163 55M163 55V1H109V55H163Z" stroke="white" stroke-width="0.1"/>
<path d="M136 6.23607L140.662 20.5836L140.886 21.2746H141.613H156.699L144.494 30.1418L143.906 30.5689L144.131 31.2599L148.793 45.6074L136.588 36.7401L136 36.3131L135.412 36.7401L123.207 45.6074L127.869 31.2599L128.094 30.5689L127.506 30.1418L115.301 21.2746H130.387H131.114L131.338 20.5836L136 6.23607Z" stroke="#FFEC68" stroke-width="2"/>
<path d="M202.5 45.5L190 36.5L177 45.5L182 30.5L170 21.5H185L190 7.5L195 21.5H211L198 31L202.5 45.5L217 55V1H163V55H217L202.5 45.5Z" fill="white"/>
<path d="M202.5 45.5L190 36.5L177 45.5L182 30.5L170 21.5H185L190 7.5L195 21.5H211L198 31L202.5 45.5ZM202.5 45.5L217 55M217 55V1H163V55H217Z" stroke="white" stroke-width="0.1"/>
<path d="M190 6.23607L194.662 20.5836L194.886 21.2746H195.613H210.699L198.494 30.1418L197.906 30.5689L198.131 31.2599L202.793 45.6074L190.588 36.7401L190 36.3131L189.412 36.7401L177.207 45.6074L181.869 31.2599L182.094 30.5689L181.506 30.1418L169.301 21.2746H184.387H185.114L185.338 20.5836L190 6.23607Z" stroke="#FFEC68" stroke-width="2"/>
<path d="M256.5 45.5L244 36.5L231 45.5L236 30.5L224 21.5H239L244 7.5L249 21.5H265L252 31L256.5 45.5L271 55V1H217V55H271L256.5 45.5Z" fill="white"/>
<path d="M256.5 45.5L244 36.5L231 45.5L236 30.5L224 21.5H239L244 7.5L249 21.5H265L252 31L256.5 45.5ZM256.5 45.5L271 55M271 55V1H217V55H271Z" stroke="white" stroke-width="0.1"/>
<path d="M244 6.23607L248.662 20.5836L248.886 21.2746H249.613H264.699L252.494 30.1418L251.906 30.5689L252.131 31.2599L256.793 45.6074L244.588 36.7401L244 36.3131L243.412 36.7401L231.207 45.6074L235.869 31.2599L236.094 30.5689L235.506 30.1418L223.301 21.2746H238.387H239.114L239.338 20.5836L244 6.23607Z" stroke="#FFEC68" stroke-width="2"/>
</svg>
