<svg width="24" height="24" viewBox="0 0 24 24" fill="none" xmlns="http://www.w3.org/2000/svg">
<path fill-rule="evenodd" clip-rule="evenodd" d="M12 6C11.5404 6 11.0852 6.09053 10.6606 6.26642C10.236 6.44231 9.85013 6.70012 9.52513 7.02513C9.20012 7.35013 8.94231 7.73597 8.76642 8.16061C8.59053 8.58525 8.5 9.04037 8.5 9.5C8.5 9.95963 8.59053 10.4148 8.76642 10.8394C8.94231 11.264 9.20012 11.6499 9.52513 11.9749C9.85013 12.2999 10.236 12.5577 10.6606 12.7336C11.0852 12.9095 11.5404 13 12 13C12.9283 13 13.8185 12.6313 14.4749 11.9749C15.1313 11.3185 15.5 10.4283 15.5 9.5C15.5 8.57174 15.1313 7.6815 14.4749 7.02513C13.8185 6.36875 12.9283 6 12 6ZM10.5 9.5C10.5 9.10218 10.658 8.72064 10.9393 8.43934C11.2206 8.15804 11.6022 8 12 8C12.3978 8 12.7794 8.15804 13.0607 8.43934C13.342 8.72064 13.5 9.10218 13.5 9.5C13.5 9.89782 13.342 10.2794 13.0607 10.5607C12.7794 10.842 12.3978 11 12 11C11.6022 11 11.2206 10.842 10.9393 10.5607C10.658 10.2794 10.5 9.89782 10.5 9.5Z" fill="black"/>
<path fill-rule="evenodd" clip-rule="evenodd" d="M12 2C7.828 2 4.5 5.483 4.5 9.712C4.5 11.901 5.714 14.101 7.065 15.998C7.988 17.294 9.075 18.576 10.022 19.692C10.462 20.212 10.872 20.695 11.222 21.128L12 22.092L12.778 21.128C13.128 20.695 13.538 20.212 13.978 19.692C14.925 18.576 16.012 17.294 16.935 15.998C18.286 14.1 19.5 11.9 19.5 9.712C19.5 5.483 16.172 2 12 2ZM6.5 9.712C6.5 6.527 8.992 4 12 4C15.008 4 17.5 6.527 17.5 9.712C17.5 11.231 16.625 12.986 15.306 14.837C14.429 16.068 13.451 17.221 12.534 18.302C12.3527 18.514 12.1747 18.724 12 18.932L11.466 18.302C10.549 17.222 9.571 16.068 8.694 14.837C7.376 12.987 6.5 11.231 6.5 9.712Z" fill="black"/>
</svg>
