<svg width="23" height="23" viewBox="0 0 23 23" fill="none" xmlns="http://www.w3.org/2000/svg">
<path d="M15.7222 2C18.6356 2 21 4.36444 21 7.27778V15.7222C21 18.6356 18.6356 21 15.7222 21H7.27778C4.36444 21 2 18.6356 2 15.7222V7.27778C2 4.36444 4.36444 2 7.27778 2H11.5H15.7222Z" stroke="black" stroke-width="2" stroke-linecap="round" stroke-linejoin="round"/>
<path d="M11.4996 7.27783C13.8323 7.27783 15.7218 9.16728 15.7218 11.5001C15.7218 13.8328 13.8323 15.7223 11.4996 15.7223C9.16679 15.7223 7.27734 13.8328 7.27734 11.5001C7.27734 9.16728 9.16679 7.27783 11.4996 7.27783Z" stroke="black" stroke-width="2" stroke-linecap="round" stroke-linejoin="round"/>
<path d="M16.5 7C17.3284 7 18 6.32843 18 5.5C18 4.67157 17.3284 4 16.5 4C15.6716 4 15 4.67157 15 5.5C15 6.32843 15.6716 7 16.5 7Z" fill="black"/>
</svg>
